<?xml version="1.0" encoding="utf-8"?>
<!-- Uploaded to: SVG Repo, www.svgrepo.com, Generator: SVG Repo Mixer Tools -->
<svg width="800px" height="800px" viewBox="0 0 1024 1024" class="icon"  version="1.1" xmlns="http://www.w3.org/2000/svg"><path d="M705.424 235.928l-39.768-66.28c-4.528-7.544-15.432-13.72-24.232-13.72h-248c-8.8 0-19.704 6.168-24.232 13.72l-39.768 66.28" fill="#B9E3ED" /><path d="M705.44 251.928c-5.44 0-10.736-2.768-13.736-7.768l-39.768-66.28c-1.64-2.728-7.336-5.952-10.512-5.952h-248c-3.184 0-8.872 3.224-10.512 5.952l-39.768 66.28a16 16 0 1 1-27.44-16.472l39.768-66.28c7.472-12.448 23.432-21.48 37.952-21.48h248c14.52 0 30.48 9.04 37.952 21.48l39.768 66.28a16 16 0 0 1-13.704 24.24z" fill="#324654" /><path d="M951.672 475.928l-78.024-83.912c-5.992-6.448-18.096-11.736-26.896-11.76l-125.336-0.288a16 16 0 0 0-16 15.96v80" fill="#B9E3ED" /><path d="M951.672 491.928a15.976 15.976 0 0 1-11.72-5.104l-78.016-83.912c-2.992-3.224-8.112-6.976-12.512-6.984h-128v80a16 16 0 0 1-32 0v-80c0-8.536 3.336-16.568 9.4-22.616a31.704 31.704 0 0 1 22.552-9.344h0.088l125.328 0.288c13.304 0.04 29.528 7.128 38.576 16.864l78.016 83.904a16 16 0 0 1-11.712 26.904z" fill="#324654" /><path d="M81.424 587.928l61.496-90.76c4.936-7.28 16.176-13.24 24.976-13.24h145.528c8.8 0 16 7.2 16 16v88" fill="#B9E3ED" /><path d="M81.408 603.928a16 16 0 0 1-13.232-24.976l61.496-90.76c7.968-11.744 24.04-20.264 38.224-20.264h145.528c17.648 0 32 14.352 32 32v88a16 16 0 0 1-32 0v-88H167.888c-3.512 0-9.76 3.312-11.736 6.216l-61.488 90.76a15.96 15.96 0 0 1-13.256 7.024z" fill="#324654" /><path d="M908.104 877.432c0 45-168.08 78.504-378.68 78.504-210.608 0-384-33.504-384-78.504 0-45.008 170.728-81.504 381.336-81.504 210.6 0 381.344 36.496 381.344 81.504z" fill="#B8CBCD" /><path d="M705.424 475.928v-240h-376v352h-248v272h872v-384z" fill="#B9E3ED" /><path d="M953.424 875.928h-872a16 16 0 0 1-16-16v-272a16 16 0 0 1 16-16h232v-336a16 16 0 0 1 16-16h376a16 16 0 0 1 16 16v224h232a16 16 0 0 1 16 16v384a16 16 0 0 1-16 16z m-856-32h840v-352h-232a16 16 0 0 1-16-16v-224h-344v336a16 16 0 0 1-16 16h-232v240z" fill="#324654" /><path d="M521.424 491.928a16 16 0 0 1-16-16V367.992l-11.728 14.024a15.992 15.992 0 1 1-24.544-20.528l40-47.824a15.992 15.992 0 1 1 28.272 10.264v152a16 16 0 0 1-16 16z" fill="#324654" /><path d="M489.912 491.968a16 16 0 0 1-0.008-32l63.512-0.04h0.016a16 16 0 0 1 0.008 32l-63.512 0.04h-0.016z" fill="#324654" /><path d="M657.424 155.928l48 80v144l157.336 0.368 88.912 95.632h1.752v384h-872v-272l70.472-104h177.528v-248l48-80h280m0-32h-280a32 32 0 0 0-27.44 15.536l-48 80a32.064 32.064 0 0 0-4.56 16.464v216H151.888a32 32 0 0 0-26.488 14.048l-70.472 104a31.984 31.984 0 0 0-5.512 17.952v272a32 32 0 0 0 32 32h872a32 32 0 0 0 32-32v-384a31.96 31.96 0 0 0-15.624-27.488l-83.608-89.928a32 32 0 0 0-23.36-10.208l-125.408-0.288v-112.08c0-5.8-1.576-11.496-4.56-16.464l-48-80a31.968 31.968 0 0 0-27.432-15.544z" fill="#324654" /><path d="M857.424 731.928h-80a16 16 0 0 1-16-16c0-22.072 19.664-40.616 40.488-60.256 15.024-14.168 33.72-31.8 33.72-42.992 0-15.632-14.184-19.152-19.152-19.152-15.304 0-23.064 7.76-23.064 23.064a16 16 0 0 1-32 0c0-38.04 27.656-55.064 55.064-55.064 25.144 0 51.152 19.136 51.152 51.152 0 25-22.248 45.984-43.768 66.272-6.76 6.376-14.832 13.992-20.968 20.976h54.52a16 16 0 0 1 0.008 32zM210.784 803.928c-24.96 0-50.776-18.992-50.776-50.776a16 16 0 0 1 32 0c0 15.328 13.904 18.776 18.776 18.776 2.32 0 22.64-0.632 22.64-22.64 0-0.112-0.352-11.048-12.984-11.048a16 16 0 0 1 0-32c12.496 0 12.984 0 12.984-14.912 0-16.944-13.128-18.776-18.776-18.776-15.024 0-22.64 7.616-22.64 22.64a16 16 0 0 1-32 0c0-37.744 27.44-54.64 54.64-54.64 25.232 0 50.776 17.44 50.776 50.776 0 14.12-2.784 24.904-8.52 32.552a42.992 42.992 0 0 1 8.52 25.408c0 35.496-28.152 54.64-54.64 54.64z" fill="#324654" /><path d="M937.424 859.928h-840a24 24 0 1 1 0-48h840a24 24 0 1 1 0 48z" fill="#324654" /></svg>